<svg width="1125" height="144" viewBox="0 0 1125 144" fill="none" xmlns="http://www.w3.org/2000/svg">
<g filter="url(#filter0_d_6_614)">
<rect x="14" y="6" width="1095" height="114.66" rx="13.7592" fill="white"/>
<path d="M226.259 58.6184L217.923 51.9495C216.294 50.6513 213.749 50.6386 212.132 51.9368L203.796 58.6184C202.6 59.5729 201.874 61.4819 202.129 62.9837L203.732 72.5798C204.102 74.7306 206.1 76.4233 208.276 76.4233H221.767C223.917 76.4233 225.954 74.6925 226.323 72.5671L227.926 62.971C228.155 61.4819 227.43 59.5729 226.259 58.6184ZM215.976 71.3326C215.976 71.8544 215.543 72.2871 215.021 72.2871C214.499 72.2871 214.067 71.8544 214.067 71.3326V67.5145C214.067 66.9927 214.499 66.56 215.021 66.56C215.543 66.56 215.976 66.9927 215.976 67.5145V71.3326Z" fill="#333333"/>
<path d="M257.893 69.903L263.489 64.3073L257.893 58.6993L259.616 56.9766L266.947 64.3073L259.616 71.638L257.893 69.903Z" fill="#474747"/>
<path d="M301.22 55.3952H304.27L310.659 72.9688H307.898L306.68 69.6298H298.81L297.604 72.9688H294.83L301.22 55.3952ZM299.776 67.0188H305.713L302.738 58.8597L299.776 67.0188ZM318.248 60.0647C319.47 60.0647 320.579 60.3618 321.575 60.9559C322.579 61.5501 323.378 62.3493 323.972 63.3535C324.566 64.3493 324.863 65.4581 324.863 66.6799C324.863 67.5921 324.692 68.4498 324.349 69.2532C324.006 70.0482 323.529 70.7511 322.918 71.362C322.315 71.9645 321.612 72.4374 320.809 72.7805C320.014 73.1236 319.16 73.2951 318.248 73.2951C317.369 73.2951 316.6 73.0943 315.938 72.6926C315.286 72.2825 314.75 71.7595 314.332 71.1235V72.9688H311.721V54.1399H314.332V62.2363C314.75 61.5919 315.286 61.0689 315.938 60.6672C316.6 60.2655 317.369 60.0647 318.248 60.0647ZM318.223 70.7595C318.951 70.7595 319.616 70.5754 320.219 70.2072C320.821 69.839 321.298 69.3452 321.65 68.726C322.01 68.1067 322.19 67.4247 322.19 66.6799C322.19 65.9184 322.01 65.228 321.65 64.6087C321.29 63.9895 320.809 63.4999 320.206 63.1401C319.604 62.7719 318.943 62.5878 318.223 62.5878C317.495 62.5878 316.855 62.7719 316.302 63.1401C315.75 63.5083 315.319 64.002 315.01 64.6213C314.7 65.2406 314.545 65.9268 314.545 66.6799C314.545 67.4331 314.7 68.1193 315.01 68.7385C315.319 69.3578 315.75 69.8515 316.302 70.2197C316.855 70.5796 317.495 70.7595 318.223 70.7595ZM331.254 73.2951C330.099 73.2951 329.045 72.998 328.091 72.4039C327.145 71.8097 326.388 71.0147 325.819 70.0189C325.258 69.0147 324.978 67.9059 324.978 66.6925C324.978 65.7719 325.141 64.9142 325.467 64.1192C325.794 63.3158 326.241 62.6129 326.811 62.0104C327.388 61.3995 328.057 60.9225 328.819 60.5794C329.58 60.2363 330.392 60.0647 331.254 60.0647C332.409 60.0647 333.459 60.3618 334.405 60.9559C335.359 61.5501 336.116 62.3493 336.677 63.3535C337.246 64.3577 337.53 65.4707 337.53 66.6925C337.53 67.6046 337.367 68.4582 337.041 69.2532C336.715 70.0482 336.263 70.7511 335.685 71.362C335.116 71.9645 334.451 72.4374 333.689 72.7805C332.936 73.1236 332.124 73.2951 331.254 73.2951ZM331.254 70.6842C331.949 70.6842 332.572 70.5001 333.124 70.1319C333.677 69.7637 334.112 69.2783 334.43 68.6758C334.756 68.0649 334.919 67.4038 334.919 66.6925C334.919 65.9644 334.752 65.2949 334.417 64.6841C334.091 64.0732 333.652 63.5878 333.099 63.228C332.547 62.8597 331.932 62.6756 331.254 62.6756C330.568 62.6756 329.944 62.8597 329.384 63.228C328.831 63.5962 328.392 64.0857 328.066 64.6966C327.748 65.3075 327.589 65.9728 327.589 66.6925C327.589 67.4373 327.756 68.1109 328.091 68.7134C328.426 69.316 328.869 69.7971 329.421 70.157C329.982 70.5084 330.593 70.6842 331.254 70.6842ZM337.67 68.2615V60.4162H340.281V67.6214C340.281 68.182 340.419 68.6925 340.695 69.1528C340.971 69.613 341.34 69.9812 341.8 70.2574C342.26 70.5252 342.766 70.6591 343.319 70.6591C343.879 70.6591 344.386 70.5252 344.838 70.2574C345.298 69.9812 345.662 69.613 345.93 69.1528C346.206 68.6925 346.344 68.182 346.344 67.6214V60.4162H348.955L348.967 72.9688H346.356L346.344 71.6131C345.917 72.1319 345.386 72.542 344.75 72.8432C344.114 73.1445 343.432 73.2951 342.704 73.2951C341.775 73.2951 340.93 73.0692 340.168 72.6173C339.406 72.1654 338.8 71.5587 338.348 70.7972C337.896 70.0356 337.67 69.1904 337.67 68.2615ZM356.971 63.0271H354.335L354.323 72.9688H351.712L351.724 63.0271H349.729V60.4162H351.724L351.712 56.4747H354.323L354.335 60.4162H356.971V63.0271ZM362.967 72.9688L366.369 55.3952H368.478L372.984 67.2322L377.466 55.3952H379.575L382.989 72.9688H380.328L378.056 61.207L373.851 72.3035H372.093L367.901 61.207L365.629 72.9688H362.967ZM389.169 73.2951C388.015 73.2951 386.96 72.998 386.006 72.4039C385.06 71.8097 384.303 71.0147 383.734 70.0189C383.173 69.0147 382.893 67.9059 382.893 66.6925C382.893 65.7719 383.056 64.9142 383.383 64.1192C383.709 63.3158 384.157 62.6129 384.726 62.0104C385.303 61.3995 385.973 60.9225 386.734 60.5794C387.496 60.2363 388.307 60.0647 389.169 60.0647C390.132 60.0647 391.015 60.2655 391.818 60.6672C392.621 61.0605 393.308 61.6087 393.877 62.3116C394.446 63.0062 394.864 63.8096 395.132 64.7217C395.4 65.6255 395.479 66.5879 395.37 67.6088H385.692C385.801 68.1862 386.01 68.7092 386.32 69.1779C386.638 69.6381 387.04 70.0022 387.525 70.2699C388.019 70.5377 388.567 70.6758 389.169 70.6842C389.805 70.6842 390.383 70.5252 390.902 70.2072C391.429 69.8892 391.86 69.4498 392.195 68.8892L394.843 69.5042C394.341 70.6172 393.584 71.5294 392.571 72.2407C391.559 72.9436 390.425 73.2951 389.169 73.2951ZM385.604 65.6129H392.734C392.651 65.0104 392.437 64.4665 392.094 63.9811C391.759 63.4874 391.337 63.0982 390.826 62.8137C390.324 62.5208 389.772 62.3744 389.169 62.3744C388.575 62.3744 388.023 62.5166 387.512 62.8012C387.01 63.0857 386.592 63.4748 386.257 63.9686C385.931 64.4539 385.713 65.0021 385.604 65.6129Z" fill="#333333"/>
<path d="M424.426 69.903L430.022 64.3073L424.426 58.6993L426.149 56.9766L433.48 64.3073L426.149 71.638L424.426 69.903Z" fill="#474747"/>
<path d="M465.731 72.9688L461.238 55.3952H463.924L467.213 68.2866L470.489 55.3952H472.861L476.15 68.2866L479.439 55.3952H482.125L477.656 72.9688H474.656L471.681 61.3325L468.706 72.9688H465.731ZM487.062 73.2951C485.907 73.2951 484.853 72.998 483.899 72.4039C482.953 71.8097 482.196 71.0147 481.627 70.0189C481.066 69.0147 480.786 67.9059 480.786 66.6925C480.786 65.7719 480.949 64.9142 481.275 64.1192C481.602 63.3158 482.049 62.6129 482.618 62.0104C483.196 61.3995 483.865 60.9225 484.627 60.5794C485.388 60.2363 486.2 60.0647 487.062 60.0647C488.217 60.0647 489.267 60.3618 490.213 60.9559C491.167 61.5501 491.924 62.3493 492.485 63.3535C493.054 64.3577 493.338 65.4707 493.338 66.6925C493.338 67.6046 493.175 68.4582 492.849 69.2532C492.522 70.0482 492.07 70.7511 491.493 71.362C490.924 71.9645 490.259 72.4374 489.497 72.7805C488.744 73.1236 487.932 73.2951 487.062 73.2951ZM487.062 70.6842C487.756 70.6842 488.38 70.5001 488.932 70.1319C489.485 69.7637 489.92 69.2783 490.238 68.6758C490.564 68.0649 490.727 67.4038 490.727 66.6925C490.727 65.9644 490.56 65.2949 490.225 64.6841C489.899 64.0732 489.459 63.5878 488.907 63.228C488.355 62.8597 487.74 62.6756 487.062 62.6756C486.376 62.6756 485.752 62.8597 485.192 63.228C484.639 63.5962 484.2 64.0857 483.874 64.6966C483.556 65.3075 483.397 65.9728 483.397 66.6925C483.397 67.4373 483.564 68.1109 483.899 68.7134C484.233 69.316 484.677 69.7971 485.229 70.157C485.79 70.5084 486.401 70.6842 487.062 70.6842ZM494.225 72.9688V60.4162H496.836V61.7468C497.271 61.2279 497.807 60.8179 498.443 60.5166C499.079 60.2153 499.765 60.0647 500.501 60.0647C500.97 60.0647 501.434 60.1275 501.895 60.253L500.853 62.889C500.526 62.7635 500.2 62.7007 499.874 62.7007C499.321 62.7007 498.815 62.8388 498.355 63.115C497.895 63.3828 497.526 63.7468 497.25 64.2071C496.974 64.6673 496.836 65.1778 496.836 65.7385V72.9688H494.225ZM512.912 72.9688H509.899L506.812 67.6465L504.791 70.0566V72.9688H502.18V54.1399H504.791V66.0021L509.46 60.4162H512.874L508.594 65.5251L512.912 72.9688ZM518.971 72.9688V55.3952H529.88V58.0061H521.582V62.2489H528.26V64.8598H521.582L521.582 70.3578H529.88V72.9688H518.971ZM530.297 72.9688L534.892 66.6674L530.323 60.3911H533.549L536.498 64.433L539.461 60.3911H542.674L538.118 66.6674L542.712 72.9688H539.486L536.498 68.8766L533.523 72.9688H530.297ZM546.219 79.245H543.608V60.4162H546.219V62.2614C546.638 61.617 547.173 61.094 547.826 60.6923C548.479 60.2907 549.249 60.0898 550.136 60.0898C551.048 60.0898 551.902 60.2614 552.697 60.6045C553.5 60.9476 554.203 61.4246 554.805 62.0355C555.408 62.638 555.881 63.3367 556.224 64.1317C556.567 64.9267 556.738 65.7803 556.738 66.6925C556.738 67.6046 556.567 68.4624 556.224 69.2657C555.881 70.0691 555.408 70.7762 554.805 71.3871C554.203 71.9896 553.5 72.4625 552.697 72.8056C551.902 73.1487 551.048 73.3202 550.136 73.3202C549.249 73.3202 548.479 73.1194 547.826 72.7177C547.173 72.3076 546.638 71.7846 546.219 71.1486V79.245ZM550.111 62.6129C549.383 62.6129 548.742 62.797 548.19 63.1652C547.638 63.5334 547.207 64.0271 546.897 64.6464C546.588 65.2573 546.433 65.9393 546.433 66.6925C546.433 67.4456 546.588 68.1318 546.897 68.7511C547.207 69.3703 547.638 69.8641 548.19 70.2323C548.742 70.6005 549.383 70.7846 550.111 70.7846C550.83 70.7846 551.491 70.6047 552.094 70.2448C552.697 69.8766 553.178 69.3829 553.538 68.7636C553.897 68.1444 554.077 67.454 554.077 66.6925C554.077 65.9477 553.897 65.2657 553.538 64.6464C553.186 64.0271 552.709 63.5334 552.107 63.1652C551.504 62.797 550.839 62.6129 550.111 62.6129ZM563.142 73.2951C561.987 73.2951 560.933 72.998 559.979 72.4039C559.033 71.8097 558.276 71.0147 557.707 70.0189C557.146 69.0147 556.866 67.9059 556.866 66.6925C556.866 65.7719 557.029 64.9142 557.355 64.1192C557.681 63.3158 558.129 62.6129 558.698 62.0104C559.276 61.3995 559.945 60.9225 560.707 60.5794C561.468 60.2363 562.28 60.0647 563.142 60.0647C564.104 60.0647 564.987 60.2655 565.79 60.6672C566.594 61.0605 567.28 61.6087 567.849 62.3116C568.418 63.0062 568.836 63.8096 569.104 64.7217C569.372 65.6255 569.452 66.5879 569.343 67.6088H559.665C559.774 68.1862 559.983 68.7092 560.292 69.1779C560.61 69.6381 561.012 70.0022 561.497 70.2699C561.991 70.5377 562.539 70.6758 563.142 70.6842C563.778 70.6842 564.355 70.5252 564.874 70.2072C565.401 69.8892 565.832 69.4498 566.167 68.8892L568.816 69.5042C568.313 70.6172 567.556 71.5294 566.544 72.2407C565.531 72.9436 564.397 73.2951 563.142 73.2951ZM559.577 65.6129H566.707C566.623 65.0104 566.41 64.4665 566.067 63.9811C565.732 63.4874 565.309 63.0982 564.799 62.8137C564.297 62.5208 563.744 62.3744 563.142 62.3744C562.548 62.3744 561.995 62.5166 561.485 62.8012C560.983 63.0857 560.564 63.4748 560.23 63.9686C559.903 64.4539 559.686 65.0021 559.577 65.6129ZM570.28 72.9688V60.4162H572.891V61.7468C573.327 61.2279 573.862 60.8179 574.498 60.5166C575.134 60.2153 575.82 60.0647 576.557 60.0647C577.025 60.0647 577.49 60.1275 577.95 60.253L576.908 62.889C576.582 62.7635 576.255 62.7007 575.929 62.7007C575.377 62.7007 574.87 62.8388 574.41 63.115C573.95 63.3828 573.582 63.7468 573.306 64.2071C573.029 64.6673 572.891 65.1778 572.891 65.7385V72.9688H570.28ZM578.26 60.4162H580.87V72.9688H578.26V60.4162ZM579.59 58.5961C579.188 58.5961 578.854 58.4663 578.586 58.2069C578.318 57.9475 578.184 57.6211 578.184 57.2278C578.184 56.8429 578.318 56.5207 578.586 56.2613C578.854 55.9935 579.184 55.8596 579.578 55.8596C579.962 55.8596 580.289 55.9935 580.557 56.2613C580.824 56.5207 580.958 56.8429 580.958 57.2278C580.958 57.6211 580.824 57.9475 580.557 58.2069C580.297 58.4663 579.975 58.5961 579.59 58.5961ZM588.035 73.2951C586.88 73.2951 585.826 72.998 584.872 72.4039C583.926 71.8097 583.169 71.0147 582.6 70.0189C582.039 69.0147 581.759 67.9059 581.759 66.6925C581.759 65.7719 581.922 64.9142 582.248 64.1192C582.575 63.3158 583.023 62.6129 583.592 62.0104C584.169 61.3995 584.838 60.9225 585.6 60.5794C586.362 60.2363 587.173 60.0647 588.035 60.0647C588.998 60.0647 589.88 60.2655 590.684 60.6672C591.487 61.0605 592.173 61.6087 592.742 62.3116C593.311 63.0062 593.73 63.8096 593.998 64.7217C594.265 65.6255 594.345 66.5879 594.236 67.6088H584.558C584.667 68.1862 584.876 68.7092 585.186 69.1779C585.504 69.6381 585.905 70.0022 586.391 70.2699C586.885 70.5377 587.433 70.6758 588.035 70.6842C588.671 70.6842 589.249 70.5252 589.767 70.2072C590.295 69.8892 590.726 69.4498 591.06 68.8892L593.709 69.5042C593.207 70.6172 592.45 71.5294 591.437 72.2407C590.424 72.9436 589.29 73.2951 588.035 73.2951ZM584.47 65.6129H591.6C591.516 65.0104 591.303 64.4665 590.96 63.9811C590.625 63.4874 590.203 63.0982 589.692 62.8137C589.19 62.5208 588.638 62.3744 588.035 62.3744C587.441 62.3744 586.889 62.5166 586.378 62.8012C585.876 63.0857 585.458 63.4748 585.123 63.9686C584.797 64.4539 584.579 65.0021 584.47 65.6129ZM606.471 65.0983V72.9688H603.86V65.7385C603.86 65.1778 603.722 64.6673 603.446 64.2071C603.178 63.7468 602.814 63.3828 602.354 63.115C601.902 62.8388 601.392 62.7007 600.822 62.7007C600.27 62.7007 599.764 62.8388 599.304 63.115C598.843 63.3828 598.475 63.7468 598.199 64.2071C597.923 64.6673 597.785 65.1778 597.785 65.7385V72.9688H595.174V60.4162H597.785V61.7468C598.22 61.2279 598.756 60.8179 599.391 60.5166C600.027 60.2153 600.714 60.0647 601.45 60.0647C602.379 60.0647 603.224 60.2907 603.986 60.7425C604.747 61.1944 605.35 61.8011 605.793 62.5627C606.245 63.3242 606.471 64.1694 606.471 65.0983ZM615.787 69.4038L618.122 70.6716C617.553 71.4666 616.829 72.1026 615.95 72.5796C615.08 73.0566 614.135 73.2951 613.114 73.2951C611.959 73.2951 610.904 72.998 609.95 72.4039C609.005 71.8097 608.247 71.0147 607.678 70.0189C607.118 69.0147 606.837 67.9059 606.837 66.6925C606.837 65.7719 607 64.9142 607.327 64.1192C607.653 63.3158 608.101 62.6129 608.67 62.0104C609.247 61.3995 609.917 60.9225 610.678 60.5794C611.44 60.2363 612.252 60.0647 613.114 60.0647C614.135 60.0647 615.08 60.3032 615.95 60.7802C616.829 61.2572 617.553 61.8974 618.122 62.7007L615.787 63.9686C615.436 63.5501 615.026 63.2321 614.557 63.0146C614.088 62.7886 613.607 62.6756 613.114 62.6756C612.427 62.6756 611.804 62.8639 611.243 63.2405C610.691 63.6087 610.252 64.0983 609.925 64.7092C609.607 65.3117 609.448 65.9728 609.448 66.6925C609.448 67.4038 609.611 68.0649 609.938 68.6758C610.264 69.2783 610.703 69.7637 611.256 70.1319C611.816 70.5001 612.436 70.6842 613.114 70.6842C613.632 70.6842 614.126 70.567 614.595 70.3327C615.063 70.0984 615.461 69.7888 615.787 69.4038ZM624.451 73.2951C623.297 73.2951 622.242 72.998 621.288 72.4039C620.343 71.8097 619.585 71.0147 619.016 70.0189C618.456 69.0147 618.175 67.9059 618.175 66.6925C618.175 65.7719 618.338 64.9142 618.665 64.1192C618.991 63.3158 619.439 62.6129 620.008 62.0104C620.585 61.3995 621.255 60.9225 622.016 60.5794C622.778 60.2363 623.59 60.0647 624.451 60.0647C625.414 60.0647 626.297 60.2655 627.1 60.6672C627.903 61.0605 628.59 61.6087 629.159 62.3116C629.728 63.0062 630.146 63.8096 630.414 64.7217C630.682 65.6255 630.761 66.5879 630.652 67.6088H620.974C621.083 68.1862 621.292 68.7092 621.602 69.1779C621.92 69.6381 622.322 70.0022 622.807 70.2699C623.301 70.5377 623.849 70.6758 624.451 70.6842C625.087 70.6842 625.665 70.5252 626.184 70.2072C626.711 69.8892 627.142 69.4498 627.477 68.8892L630.125 69.5042C629.623 70.6172 628.866 71.5294 627.853 72.2407C626.841 72.9436 625.707 73.2951 624.451 73.2951ZM620.887 65.6129H628.016C627.933 65.0104 627.719 64.4665 627.376 63.9811C627.041 63.4874 626.619 63.0982 626.108 62.8137C625.606 62.5208 625.054 62.3744 624.451 62.3744C623.857 62.3744 623.305 62.5166 622.795 62.8012C622.292 63.0857 621.874 63.4748 621.539 63.9686C621.213 64.4539 620.995 65.0021 620.887 65.6129Z" fill="#333333"/>
<path d="M659.959 69.903L665.555 64.3073L659.959 58.6993L661.682 56.9766L669.013 64.3073L661.682 71.638L659.959 69.903Z" fill="#474747"/>
<path d="M697.398 72.9688V55.3952H703.448C704.394 55.3952 705.247 55.6295 706.009 56.0981C706.779 56.5667 707.39 57.1985 707.842 57.9935C708.302 58.7885 708.532 59.6672 708.532 60.6296C708.532 61.6087 708.298 62.4957 707.829 63.2907C707.369 64.0773 706.754 64.705 705.984 65.1736C705.214 65.6422 704.369 65.8765 703.448 65.8765H700.009V72.9688H697.398ZM700.009 63.2656H703.185C703.687 63.2656 704.143 63.1401 704.553 62.889C704.971 62.638 705.302 62.3032 705.545 61.8848C705.796 61.4664 705.921 60.9936 705.921 60.4664C705.921 59.9392 705.796 59.4664 705.545 59.0479C705.302 58.6212 704.971 58.2864 704.553 58.0437C704.143 57.7927 703.687 57.6672 703.185 57.6672H700.009V63.2656ZM709.447 72.9688V60.4162H712.058V61.7468C712.493 61.2279 713.028 60.8179 713.664 60.5166C714.3 60.2153 714.987 60.0647 715.723 60.0647C716.192 60.0647 716.656 60.1275 717.116 60.253L716.075 62.889C715.748 62.7635 715.422 62.7007 715.095 62.7007C714.543 62.7007 714.037 62.8388 713.577 63.115C713.116 63.3828 712.748 63.7468 712.472 64.2071C712.196 64.6673 712.058 65.1778 712.058 65.7385V72.9688H709.447ZM722.361 73.2951C721.206 73.2951 720.151 72.998 719.197 72.4039C718.252 71.8097 717.494 71.0147 716.925 70.0189C716.365 69.0147 716.084 67.9059 716.084 66.6925C716.084 65.7719 716.247 64.9142 716.574 64.1192C716.9 63.3158 717.348 62.6129 717.917 62.0104C718.494 61.3995 719.164 60.9225 719.925 60.5794C720.687 60.2363 721.499 60.0647 722.361 60.0647C723.515 60.0647 724.566 60.3618 725.511 60.9559C726.465 61.5501 727.223 62.3493 727.783 63.3535C728.352 64.3577 728.637 65.4707 728.637 66.6925C728.637 67.6046 728.474 68.4582 728.147 69.2532C727.821 70.0482 727.369 70.7511 726.792 71.362C726.223 71.9645 725.557 72.4374 724.796 72.7805C724.043 73.1236 723.231 73.2951 722.361 73.2951ZM722.361 70.6842C723.055 70.6842 723.679 70.5001 724.231 70.1319C724.783 69.7637 725.218 69.2783 725.536 68.6758C725.863 68.0649 726.026 67.4038 726.026 66.6925C726.026 65.9644 725.859 65.2949 725.524 64.6841C725.197 64.0732 724.758 63.5878 724.206 63.228C723.653 62.8597 723.038 62.6756 722.361 62.6756C721.674 62.6756 721.051 62.8597 720.49 63.228C719.938 63.5962 719.499 64.0857 719.172 64.6966C718.854 65.3075 718.695 65.9728 718.695 66.6925C718.695 67.4373 718.863 68.1109 719.197 68.7134C719.532 69.316 719.976 69.7971 720.528 70.157C721.089 70.5084 721.699 70.6842 722.361 70.6842ZM727.087 79.245V76.6341C727.614 76.6341 728.087 76.5128 728.505 76.2701C728.932 76.0358 729.267 75.7094 729.509 75.291C729.76 74.8726 729.886 74.4081 729.886 73.8976V60.4162H732.497L732.497 73.8976C732.497 74.8767 732.258 75.7722 731.781 76.5839C731.304 77.3956 730.656 78.04 729.836 78.517C729.024 79.0024 728.108 79.245 727.087 79.245ZM731.217 58.5961C730.815 58.5961 730.48 58.4663 730.212 58.2069C729.945 57.9475 729.811 57.6211 729.811 57.2278C729.811 56.8429 729.945 56.5207 730.212 56.2613C730.48 55.9935 730.811 55.8596 731.204 55.8596C731.589 55.8596 731.915 55.9935 732.183 56.2613C732.451 56.5207 732.585 56.8429 732.585 57.2278C732.585 57.6211 732.451 57.9475 732.183 58.2069C731.924 58.4663 731.602 58.5961 731.217 58.5961ZM739.667 73.2951C738.512 73.2951 737.458 72.998 736.504 72.4039C735.558 71.8097 734.801 71.0147 734.232 70.0189C733.671 69.0147 733.391 67.9059 733.391 66.6925C733.391 65.7719 733.554 64.9142 733.88 64.1192C734.207 63.3158 734.655 62.6129 735.224 62.0104C735.801 61.3995 736.47 60.9225 737.232 60.5794C737.993 60.2363 738.805 60.0647 739.667 60.0647C740.63 60.0647 741.512 60.2655 742.316 60.6672C743.119 61.0605 743.805 61.6087 744.374 62.3116C744.943 63.0062 745.362 63.8096 745.63 64.7217C745.897 65.6255 745.977 66.5879 745.868 67.6088H736.19C736.299 68.1862 736.508 68.7092 736.818 69.1779C737.136 69.6381 737.537 70.0022 738.023 70.2699C738.517 70.5377 739.065 70.6758 739.667 70.6842C740.303 70.6842 740.881 70.5252 741.399 70.2072C741.927 69.8892 742.358 69.4498 742.692 68.8892L745.341 69.5042C744.839 70.6172 744.081 71.5294 743.069 72.2407C742.056 72.9436 740.922 73.2951 739.667 73.2951ZM736.102 65.6129H743.232C743.148 65.0104 742.935 64.4665 742.592 63.9811C742.257 63.4874 741.835 63.0982 741.324 62.8137C740.822 62.5208 740.27 62.3744 739.667 62.3744C739.073 62.3744 738.521 62.5166 738.01 62.8012C737.508 63.0857 737.09 63.4748 736.755 63.9686C736.429 64.4539 736.211 65.0021 736.102 65.6129ZM754.978 69.4038L757.313 70.6716C756.744 71.4666 756.02 72.1026 755.141 72.5796C754.271 73.0566 753.325 73.2951 752.304 73.2951C751.15 73.2951 750.095 72.998 749.141 72.4039C748.196 71.8097 747.438 71.0147 746.869 70.0189C746.308 69.0147 746.028 67.9059 746.028 66.6925C746.028 65.7719 746.191 64.9142 746.518 64.1192C746.844 63.3158 747.292 62.6129 747.861 62.0104C748.438 61.3995 749.108 60.9225 749.869 60.5794C750.631 60.2363 751.442 60.0647 752.304 60.0647C753.325 60.0647 754.271 60.3032 755.141 60.7802C756.02 61.2572 756.744 61.8974 757.313 62.7007L754.978 63.9686C754.627 63.5501 754.217 63.2321 753.748 63.0146C753.279 62.7886 752.798 62.6756 752.304 62.6756C751.618 62.6756 750.995 62.8639 750.434 63.2405C749.882 63.6087 749.442 64.0983 749.116 64.7092C748.798 65.3117 748.639 65.9728 748.639 66.6925C748.639 67.4038 748.802 68.0649 749.129 68.6758C749.455 69.2783 749.894 69.7637 750.447 70.1319C751.007 70.5001 751.627 70.6842 752.304 70.6842C752.823 70.6842 753.317 70.567 753.786 70.3327C754.254 70.0984 754.652 69.7888 754.978 69.4038ZM765.066 63.0271H762.43L762.417 72.9688H759.806L759.819 63.0271H757.823V60.4162H759.819L759.806 56.4747H762.417L762.43 60.4162H765.066V63.0271ZM769.766 73.2072C769.105 73.1654 768.461 73.0315 767.833 72.8056C767.205 72.5796 766.653 72.2742 766.176 71.8892C765.707 71.4959 765.356 71.0357 765.122 70.5084L767.343 69.5545C767.452 69.7804 767.64 70.0022 767.908 70.2197C768.184 70.4373 768.507 70.6172 768.875 70.7595C769.243 70.8934 769.628 70.9603 770.03 70.9603C770.423 70.9603 770.787 70.9059 771.122 70.7972C771.465 70.68 771.745 70.5043 771.963 70.2699C772.18 70.0356 772.289 69.7553 772.289 69.4289C772.289 69.0607 772.164 68.7762 771.912 68.5754C771.67 68.3661 771.364 68.2071 770.996 68.0984C770.628 67.9896 770.26 67.885 769.891 67.7845C769.071 67.6004 768.318 67.3494 767.632 67.0314C766.954 66.705 766.414 66.2908 766.013 65.7887C765.611 65.2782 765.41 64.6548 765.41 63.9183C765.41 63.115 765.628 62.4204 766.063 61.8346C766.498 61.2405 767.067 60.7844 767.77 60.4664C768.481 60.1484 769.239 59.9894 770.042 59.9894C771.046 59.9894 771.967 60.2028 772.804 60.6296C773.641 61.0564 774.281 61.6421 774.724 62.3869L772.653 63.6171C772.528 63.366 772.339 63.1401 772.088 62.9392C771.837 62.7384 771.553 62.5794 771.235 62.4622C770.917 62.3367 770.586 62.2656 770.243 62.2489C769.816 62.2321 769.419 62.2823 769.05 62.3995C768.691 62.5083 768.402 62.684 768.184 62.9267C767.967 63.1694 767.858 63.479 767.858 63.8556C767.858 64.2238 767.988 64.4999 768.247 64.6841C768.507 64.8598 768.833 65.0021 769.226 65.1108C769.628 65.2196 770.038 65.341 770.456 65.4749C771.201 65.7092 771.9 65.9979 772.553 66.341C773.205 66.6757 773.733 67.09 774.134 67.5837C774.536 68.0774 774.728 68.68 774.712 69.3913C774.712 70.1779 774.473 70.8683 773.996 71.4624C773.528 72.0566 772.917 72.5085 772.164 72.8181C771.41 73.1277 770.611 73.2575 769.766 73.2072Z" fill="#333333"/>
<path d="M803.491 69.903L809.087 64.3073L803.491 58.6993L805.214 56.9766L812.545 64.3073L805.214 71.638L803.491 69.903Z" fill="#474747"/>
<path d="M849.065 73.2951C847.876 73.2951 846.759 73.0608 845.713 72.5922C844.667 72.1152 843.747 71.4624 842.952 70.634C842.165 69.7971 841.546 68.8264 841.094 67.7218C840.65 66.6171 840.429 65.4372 840.429 64.182C840.429 62.9267 840.65 61.7468 841.094 60.6421C841.546 59.5375 842.165 58.571 842.952 57.7425C843.747 56.9056 844.667 56.2529 845.713 55.7843C846.759 55.3073 847.876 55.0688 849.065 55.0688C850.487 55.0688 851.797 55.3993 852.994 56.0604C854.19 56.7215 855.182 57.6002 855.969 58.6965L853.646 59.9392C853.102 59.253 852.429 58.7048 851.625 58.2948C850.822 57.8847 849.968 57.6797 849.065 57.6797C848.228 57.6797 847.445 57.8513 846.717 58.1944C845.989 58.5375 845.349 59.0061 844.797 59.6003C844.245 60.1944 843.814 60.8848 843.504 61.6714C843.194 62.4581 843.039 63.2949 843.039 64.182C843.039 65.0774 843.194 65.9184 843.504 66.705C843.814 67.4833 844.245 68.1737 844.797 68.7762C845.357 69.3703 846.002 69.839 846.73 70.1821C847.458 70.5168 848.236 70.6842 849.065 70.6842C849.985 70.6842 850.843 70.4792 851.638 70.0691C852.441 69.6507 853.111 69.0984 853.646 68.4122L855.969 69.68C855.182 70.7762 854.19 71.6549 852.994 72.316C851.797 72.9688 850.487 73.2951 849.065 73.2951ZM862.131 73.2951C860.976 73.2951 859.922 72.998 858.968 72.4039C858.022 71.8097 857.265 71.0147 856.696 70.0189C856.135 69.0147 855.855 67.9059 855.855 66.6925C855.855 65.7719 856.018 64.9142 856.344 64.1192C856.671 63.3158 857.118 62.6129 857.687 62.0104C858.265 61.3995 858.934 60.9225 859.696 60.5794C860.457 60.2363 861.269 60.0647 862.131 60.0647C863.286 60.0647 864.336 60.3618 865.282 60.9559C866.236 61.5501 866.993 62.3493 867.554 63.3535C868.123 64.3577 868.407 65.4707 868.407 66.6925C868.407 67.6046 868.244 68.4582 867.918 69.2532C867.591 70.0482 867.14 70.7511 866.562 71.362C865.993 71.9645 865.328 72.4374 864.566 72.7805C863.813 73.1236 863.001 73.2951 862.131 73.2951ZM862.131 70.6842C862.826 70.6842 863.449 70.5001 864.001 70.1319C864.554 69.7637 864.989 69.2783 865.307 68.6758C865.633 68.0649 865.796 67.4038 865.796 66.6925C865.796 65.9644 865.629 65.2949 865.294 64.6841C864.968 64.0732 864.529 63.5878 863.976 63.228C863.424 62.8597 862.809 62.6756 862.131 62.6756C861.445 62.6756 860.821 62.8597 860.261 63.228C859.708 63.5962 859.269 64.0857 858.943 64.6966C858.625 65.3075 858.466 65.9728 858.466 66.6925C858.466 67.4373 858.633 68.1109 858.968 68.7134C859.303 69.316 859.746 69.7971 860.298 70.157C860.859 70.5084 861.47 70.6842 862.131 70.6842ZM880.592 65.0983V72.9688H877.981V65.7385C877.981 65.1778 877.843 64.6673 877.566 64.2071C877.299 63.7468 876.935 63.3828 876.474 63.115C876.022 62.8388 875.512 62.7007 874.943 62.7007C874.391 62.7007 873.884 62.8388 873.424 63.115C872.964 63.3828 872.596 63.7468 872.319 64.2071C872.043 64.6673 871.905 65.1778 871.905 65.7385L871.905 72.9688H869.294V60.4162H871.905V61.7468C872.34 61.2279 872.876 60.8179 873.512 60.5166C874.148 60.2153 874.834 60.0647 875.571 60.0647C876.499 60.0647 877.345 60.2907 878.106 60.7425C878.868 61.1944 879.47 61.8011 879.914 62.5627C880.366 63.3242 880.592 64.1694 880.592 65.0983ZM888.584 63.0271H885.948L885.935 72.9688H883.324L883.337 63.0271H881.341V60.4162H883.337L883.324 56.4747H885.935L885.948 60.4162H888.584V63.0271ZM899.162 60.4162H901.773V72.9688H899.149L899.049 71.1486C898.68 71.793 898.183 72.3118 897.555 72.7051C896.927 73.0985 896.187 73.2951 895.333 73.2951C894.413 73.2951 893.546 73.1236 892.735 72.7805C891.923 72.429 891.208 71.9436 890.588 71.3244C889.977 70.7051 889.5 69.9938 889.157 69.1904C888.814 68.3787 888.643 67.5084 888.643 66.5795C888.643 65.6841 888.81 64.8431 889.145 64.0564C889.479 63.2614 889.944 62.5669 890.538 61.9727C891.132 61.3785 891.818 60.9141 892.597 60.5794C893.383 60.2363 894.224 60.0647 895.12 60.0647C896.032 60.0647 896.835 60.2739 897.53 60.6923C898.233 61.1024 898.814 61.6296 899.275 62.274L899.162 60.4162ZM895.27 70.7721C896.007 70.7721 896.651 70.5921 897.203 70.2323C897.756 69.8641 898.183 69.3703 898.484 68.7511C898.793 68.1318 898.948 67.4456 898.948 66.6925C898.948 65.9309 898.793 65.2406 898.484 64.6213C898.174 64.002 897.743 63.5125 897.191 63.1526C896.647 62.7844 896.007 62.6003 895.27 62.6003C894.542 62.6003 893.877 62.7844 893.275 63.1526C892.672 63.5208 892.195 64.0146 891.844 64.6338C891.492 65.2531 891.316 65.9393 891.316 66.6925C891.316 67.454 891.496 68.1444 891.856 68.7636C892.224 69.3745 892.705 69.8641 893.3 70.2323C893.902 70.5921 894.559 70.7721 895.27 70.7721ZM911.088 69.4038L913.423 70.6716C912.854 71.4666 912.13 72.1026 911.251 72.5796C910.381 73.0566 909.435 73.2951 908.414 73.2951C907.259 73.2951 906.205 72.998 905.251 72.4039C904.305 71.8097 903.548 71.0147 902.979 70.0189C902.418 69.0147 902.138 67.9059 902.138 66.6925C902.138 65.7719 902.301 64.9142 902.628 64.1192C902.954 63.3158 903.402 62.6129 903.971 62.0104C904.548 61.3995 905.218 60.9225 905.979 60.5794C906.741 60.2363 907.552 60.0647 908.414 60.0647C909.435 60.0647 910.381 60.3032 911.251 60.7802C912.13 61.2572 912.854 61.8974 913.423 62.7007L911.088 63.9686C910.736 63.5501 910.326 63.2321 909.858 63.0146C909.389 62.7886 908.908 62.6756 908.414 62.6756C907.728 62.6756 907.105 62.8639 906.544 63.2405C905.992 63.6087 905.552 64.0983 905.226 64.7092C904.908 65.3117 904.749 65.9728 904.749 66.6925C904.749 67.4038 904.912 68.0649 905.238 68.6758C905.565 69.2783 906.004 69.7637 906.556 70.1319C907.117 70.5001 907.736 70.6842 908.414 70.6842C908.933 70.6842 909.427 70.567 909.895 70.3327C910.364 70.0984 910.762 69.7888 911.088 69.4038ZM921.175 63.0271H918.539L918.527 72.9688H915.916L915.928 63.0271H913.933V60.4162H915.928L915.916 56.4747H918.527L918.539 60.4162H921.175V63.0271Z" fill="#333333"/>
</g>
<defs>
<filter id="filter0_d_6_614" x="0.918567" y="0.918567" width="1123.16" height="142.823" filterUnits="userSpaceOnUse" color-interpolation-filters="sRGB">
<feFlood flood-opacity="0" result="BackgroundImageFix"/>
<feColorMatrix in="SourceAlpha" type="matrix" values="0 0 0 0 0 0 0 0 0 0 0 0 0 0 0 0 0 0 127 0" result="hardAlpha"/>
<feMorphology radius="2.60767" operator="erode" in="SourceAlpha" result="effect1_dropShadow_6_614"/>
<feOffset dx="1" dy="9"/>
<feGaussianBlur stdDeviation="8.34455"/>
<feComposite in2="hardAlpha" operator="out"/>
<feColorMatrix type="matrix" values="0 0 0 0 0.526667 0 0 0 0 0.526667 0 0 0 0 0.526667 0 0 0 0.26 0"/>
<feBlend mode="normal" in2="BackgroundImageFix" result="effect1_dropShadow_6_614"/>
<feBlend mode="normal" in="SourceGraphic" in2="effect1_dropShadow_6_614" result="shape"/>
</filter>
</defs>
</svg>
